<?xml version="1.0" standalone="no"?><!DOCTYPE svg PUBLIC "-//W3C//DTD SVG 1.1//EN" "http://www.w3.org/Graphics/SVG/1.1/DTD/svg11.dtd"><svg t="1584089133484" class="icon" viewBox="0 0 1024 1024" version="1.1" xmlns="http://www.w3.org/2000/svg" p-id="899" xmlns:xlink="http://www.w3.org/1999/xlink" width="200" height="200"><defs><style type="text/css"></style></defs><path d="M924.16 807.424H101.376c-13.312 0-24.576-10.752-24.576-24.576V321.024c0-13.312 10.752-24.576 24.576-24.576h352.256l16.384-47.616c6.144-17.408 22.528-29.184 40.96-29.184h311.808c23.04 0 41.984 17.92 43.008 40.96l1.536 36.864 56.832-1.024c13.824 0 25.088 10.752 25.088 24.576v461.312c-0.512 14.336-11.264 25.088-25.088 25.088z" fill="#003F70" p-id="900"></path><path d="M97.28 250.88h343.04v25.6H97.28z" fill="#003F70" p-id="901"></path><path d="M513.024 566.272m-187.392 0a187.392 187.392 0 1 0 374.784 0 187.392 187.392 0 1 0-374.784 0Z" fill="#FFFFFF" p-id="902"></path><path d="M610.304 528.896c35.84 62.464-93.184 134.656-93.184 134.656S396.288 599.552 422.912 532.48c28.16-71.68 98.304-5.12 98.304-5.12s57.344-53.76 89.088 1.536z" fill="#F9515E" p-id="903"></path></svg>